<?xml version="1.0" encoding="utf-8"?>
<!-- Generator: Adobe Illustrator 23.0.1, SVG Export Plug-In . SVG Version: 6.00 Build 0)  -->
<svg version="1.1" id="Layer_1" xmlns="http://www.w3.org/2000/svg" xmlns:xlink="http://www.w3.org/1999/xlink" x="0px" y="0px"
	 viewBox="0 0 70 73" style="enable-background:new 0 0 70 73;" xml:space="preserve">
<style type="text/css">
	.st0{fill:#E40B18;}
</style>
<g>
	<path class="st0" d="M57.04,31.48c-0.47,0-43.8,0-44.27,0c-0.47,0-0.85,0.38-0.85,0.85v26.7c0,3.29,2.67,5.96,5.96,5.96h34.06
		c3.29,0,5.96-2.67,5.96-5.96v-26.7C57.89,31.86,57.51,31.48,57.04,31.48z"/>
	<path class="st0" d="M65.3,12.2h-2.86l0-2.21c0-0.09,0-0.18,0-0.26c-0.07-2.43-2.1-4.33-4.5-4.28V2.25c0-1.24-1.01-2.25-2.25-2.25
		s-2.25,1.01-2.25,2.25l0,3.19c-0.07,0-0.15,0-0.23,0c-1.18,0.03-2.27,0.53-3.08,1.38c-0.81,0.86-1.23,1.98-1.2,3.12v2.25H20.88
		l0-2.21c0-0.09,0-0.18,0-0.26c-0.03-1.18-0.53-2.27-1.38-3.08c-0.86-0.81-1.96-1.23-3.12-1.2V2.25c0-1.24-1.01-2.25-2.25-2.25
		s-2.25,1.01-2.25,2.25l0,3.19c-0.07,0-0.15,0-0.23,0c-1.18,0.03-2.27,0.53-3.08,1.38C7.76,7.68,7.33,8.8,7.37,9.95v2.25H4.5
		c-2.48,0-4.5,2.02-4.5,4.5v6.76c0,2.09,1.44,3.84,3.38,4.34v36.19c0.01,4.96,4.05,9,9.01,9.01h45.04c4.96-0.01,9-4.05,9.01-9.01
		V27.8c1.94-0.5,3.38-2.25,3.38-4.34V16.7C69.81,14.22,67.79,12.2,65.3,12.2z M57.42,68.5H12.39c-2.48,0-4.5-2.02-4.5-4.5V27.96
		h54.05v36.03C61.92,66.47,59.9,68.49,57.42,68.5z M65.3,16.7v6.76H4.5l0-6.76h0H65.3z M11.86,9.95
		C11.87,9.95,11.87,9.95,11.86,9.95l4.51-0.01c0,0,0,0,0,0.01v2.25h-4.51L11.86,9.95z M53.43,9.95C53.43,9.95,53.43,9.95,53.43,9.95
		l4.51-0.01c0,0,0,0,0,0.01v2.25h-4.51L53.43,9.95z"/>
</g>
</svg>
