<?xml version="1.0" encoding="utf-8"?>
<!-- Generator: Adobe Illustrator 23.0.1, SVG Export Plug-In . SVG Version: 6.00 Build 0)  -->
<svg version="1.1" id="Layer_1" xmlns="http://www.w3.org/2000/svg" xmlns:xlink="http://www.w3.org/1999/xlink" x="0px" y="0px"
	 viewBox="0 0 82 50" style="enable-background:new 0 0 82 50;" xml:space="preserve">
<style type="text/css">
	.st0{fill:#E40B18;}
</style>
<path class="st0" d="M41,0C21.12,0,0,5.76,0,16.42v17.03c0,10.67,21.12,16.42,41,16.42s41-5.76,41-16.42V16.42C82,5.76,60.88,0,41,0
	z M41,28.98c-9.45,0-17.65-1.23-23.94-3.12c5.97-1.33,14.64-2.13,23.94-2.13c9.3,0,17.96,0.8,23.93,2.13
	C58.65,27.75,50.45,28.98,41,28.98z M41,3.86c21.89,0,37.14,6.62,37.14,12.56c0,2.45-2.61,5.02-7.2,7.19
	C65,21.3,53.69,19.88,41,19.88c-12.7,0-24,1.42-29.94,3.74c-4.6-2.17-7.21-4.74-7.21-7.19C3.86,10.48,19.11,3.86,41,3.86z"/>
</svg>
