<?xml version="1.0" encoding="utf-8"?>
<!-- Generator: Adobe Illustrator 23.0.1, SVG Export Plug-In . SVG Version: 6.00 Build 0)  -->
<svg version="1.1" id="Layer_1" xmlns="http://www.w3.org/2000/svg" xmlns:xlink="http://www.w3.org/1999/xlink" x="0px" y="0px"
	 viewBox="0 0 54.53 79.75" style="enable-background:new 0 0 54.53 79.75;" xml:space="preserve">
<style type="text/css">
	.st0{fill-rule:evenodd;clip-rule:evenodd;fill:#E40B18;}
</style>
<path id="DNA" class="st0" d="M31.49,40.23C55.51,29.42,54.53,1.82,54.52,1.53c-0.05-0.87-0.79-1.55-1.66-1.52
	c-0.85,0.02-1.52,0.72-1.5,1.56c0,0.01,0,0.02,0,0.04c-0.01,5.94-1.18,11.81-3.47,17.29c-0.55-0.42-1.22-0.65-1.91-0.65H15.92
	c-1.74,0-3.15,1.41-3.15,3.15c0,1.74,1.41,3.15,3.15,3.15h29c-4.18,6.55-10.49,11.46-17.87,13.9C12.7,33.26,6.94,22.16,4.66,13.5
	c0.07,0,0.13,0.02,0.19,0.02h37.97c1.74,0,3.16-1.41,3.16-3.16s-1.41-3.16-3.16-3.16H4.85c-0.47,0-0.93,0.11-1.35,0.31
	C3.24,5.58,3.13,3.63,3.18,1.67C3.21,0.8,2.54,0.06,1.67,0.01C0.81-0.04,0.08,0.6,0.02,1.46C0,1.75-0.98,29.26,23.04,40.06
	C-0.73,50.89,0,78.28,0.01,78.57c0.07,0.73,0.71,1.26,1.44,1.19c0.05,0,0.09-0.01,0.14-0.02h0.06c0.71,0.12,1.38-0.35,1.5-1.06
	c0.01-0.08,0.02-0.15,0.02-0.23c0.04-5.65,1.16-11.24,3.29-16.47c0.47,0.27,1.01,0.42,1.55,0.42h30.06c1.74,0,3.16-1.41,3.16-3.16
	s-1.41-3.16-3.16-3.16l0,0H9.47c4.17-6.7,10.54-11.74,18.02-14.26c14.51,5.32,20.24,16.72,22.47,25.41
	c-0.26-0.07-0.53-0.11-0.8-0.11h-36.4c-1.74,0-3.15,1.41-3.15,3.15c0,1.74,1.41,3.15,3.15,3.15h36.39c0.67,0,1.33-0.22,1.87-0.62
	c0.25,1.87,0.37,3.76,0.34,5.65c-0.01,0.71,0.57,1.29,1.28,1.3c0.08,0,0.16-0.01,0.24-0.02h0.06c0.71,0.15,1.41-0.31,1.56-1.02
	c0.01-0.05,0.02-0.1,0.02-0.15C54.53,78.28,55.26,51.04,31.49,40.23z"/>
</svg>
