<?xml version="1.0" encoding="utf-8"?>
<!-- Generator: Adobe Illustrator 23.0.1, SVG Export Plug-In . SVG Version: 6.00 Build 0)  -->
<svg version="1.1" id="Layer_1" xmlns="http://www.w3.org/2000/svg" xmlns:xlink="http://www.w3.org/1999/xlink" x="0px" y="0px"
	 viewBox="0 0 595.28 595.28" style="enable-background:new 0 0 595.28 595.28;" xml:space="preserve">
<style type="text/css">
	.st0{fill:#FFFFFF;}
</style>
<path class="st0" d="M143.49,238.22c-10.7-4.83-12.42-5.7-12.42-7.08c0-1.71,1.77-2.78,3.41-2.78c2.71,0,3.23,1.37,3.69,4.27
	l0.36,2.28h21.68l-0.04-2.54C159.9,216.23,147.35,209,135.03,209c-12.63,0-26.05,8.14-26.05,23.24c0,14.32,13.09,19.61,17.99,21.58
	l0.79,0.33c9.08,3.82,10.87,4.72,10.87,6.37c0,1.6-1.29,3.96-4.05,3.96c-1.06,0-4.5-0.48-4.5-6.68v-2.5h-22.01l-0.08,2.41
	c-0.27,7.76,1.92,14.27,6.32,18.83c4.69,4.85,11.57,7.31,20.46,7.31c16.26,0,25.96-8.99,25.96-24.05
	C160.72,249.97,155.73,243.73,143.49,238.22"/>
<polygon class="st0" points="303.33,282.58 303.33,210.28 281.14,210.28 281.14,282.18 281.14,282.58 281.37,282.58 "/>
<rect x="180.03" y="210.28" class="st0" width="6" height="91.94"/>
<rect x="171.94" y="210.28" class="st0" width="6" height="101.94"/>
<rect x="163.84" y="210.28" class="st0" width="6" height="111.94"/>
<polygon class="st0" points="487.33,245.85 487.33,345.33 485.23,342.01 485.23,255.85 479.23,255.85 479.23,332.52 477.13,329.21 
	477.13,265.85 471.13,265.85 471.13,319.76 464.99,310 464.99,310 449.92,286.07 431.22,286.07 431.22,358.37 452.7,358.37 
	452.39,324.04 474.18,358.37 487.33,358.37 487.33,358.37 493.33,358.37 493.33,245.85 "/>
<polygon class="st0" points="364.67,269.54 362.58,266.22 362.58,224.11 438.57,224.11 438.57,218.11 356.58,218.11 356.58,256.73 
	354.48,253.42 354.48,216.19 449.02,216.19 449.02,210.19 348.48,210.19 348.48,243.96 342.34,234.21 342.34,234.21 327.27,210.28 
	308.56,210.28 308.56,282.58 330.05,282.58 329.74,248.25 351.52,282.58 364.67,282.58 370.67,282.58 370.67,231.86 387.64,231.86 
	387.64,282.58 409.83,282.58 409.83,231.86 428.57,231.86 428.57,225.86 364.67,225.86 "/>
<path class="st0" d="M373.16,310.82h-6.86c-1.52,3.58-2.4,7.72-2.4,12.39v0.06c0,7.07,2.78,14.12,7.62,19.33
	c5.21,5.62,12.35,8.71,20.09,8.71c15.64,0,27.88-12.57,27.88-28.6c0-6.85-2.32-13.63-6.76-18.88c-5.5-6.51-13.74-9.97-22.21-9.72
	c-3.19,0.09-6.4,0.03-9.59,0.03h-14.62h-16.26h-13.7h-6.89h-0.01v6h6.62h16.08h18.56c5.99,0,11.98-0.01,17.97,0.03
	c0.13,0,0.26,0,0.39,0c1.24,0,2.48-0.03,3.73-0.03c11.7,0.58,20.71,10.29,20.71,22.58c0,12.67-9.61,22.6-21.88,22.6
	c-6.05,0-11.63-2.41-15.69-6.79c-3.82-4.12-6.02-9.68-6.02-15.25v-0.06C369.9,318.95,371.01,314.59,373.16,310.82"/>
<path class="st0" d="M357.94,308.11c8.37,0,16.74,0.01,25.11,0.13c1.52,0.02,3.04,0.05,4.57,0.08c0.45,0.01,0.9,0.02,1.35,0.03
	c2.56,0.05,5.16,0.11,7.61,0.86c5.55,1.71,8.97,7.91,8.97,13.5c0,8.07-6.12,14.39-13.93,14.39c-3.87,0-7.4-1.51-9.95-4.26
	c-2.42-2.61-3.81-6.1-3.81-9.57v-0.06c0-6.39,2.67-10.22,5.86-12.39h-8.38c-2.11,3.12-3.48,7.19-3.48,12.39v0.06
	c0,4.97,1.97,9.95,5.41,13.65c3.7,3.99,8.79,6.18,14.35,6.18c11.18,0,19.93-8.96,19.93-20.39c0-7.08-3.56-13.9-9.68-17.58
	c-5.39-3.24-11.64-3.02-17.69-3.02c-3.51,0-7.03,0-10.54,0h-18.58h-16.77h-8.82h0h-0.03v3.17h0v6.07h-17.01v-25.28h-22.19v72.3
	h22.19v-26.92h17.01v26.92h22.19v-50.26H357.94z"/>
<path class="st0" d="M413.14,293.18c-4.66-3.55-9.76-5.8-15.58-6.62c-1.96-0.28-3.92-0.42-5.9-0.49c-2.67-0.09-5.35-0.04-8.02,0
	c-9.45,0-18.89,0.1-28.34,0.1h-15.6h-9.54h-0.98l0.24,6h4.57h12.02h15.63h15.64c2.99,0,5.98,0.11,8.97,0.02
	c3.11-0.08,6.24-0.23,9.35,0.11c6.5,0.72,12.49,3.74,17.06,8.41c4.82,4.92,7.78,11.45,8.55,18.27c0.14,1.24,0.21,2.48,0.21,3.73
	c0,17.27-13.1,30.79-29.82,30.79c-8.24,0-15.84-3.31-21.41-9.31c-5.22-5.63-8.22-13.25-8.22-20.92v-0.06c0-4.62,0.8-8.76,2.19-12.39
	h-6.39c-1.16,3.73-1.8,7.87-1.8,12.39v0.06c0,9.16,3.58,18.27,9.82,25c6.72,7.24,15.89,11.23,25.81,11.23
	c20.08,0,35.82-16.16,35.82-36.79c0-7.11-1.92-14.19-5.71-20.22C419.45,298.9,416.52,295.75,413.14,293.18"/>
<path class="st0" d="M262.54,258.95c6.08-3.53,10.46-9.07,12.48-15.85c2.2-7.37,1.21-15.39-2.63-21.47
	c-6.09-9.62-18.86-12.78-30.46-12.63h-20.9v72.3h22.19v-9.65v-3.2c3.26,6.22,6.57,12.6,9.1,17.61H234.1v20.1h14.68h1.17v52.2h6
	v-52.2h2.1v52.2h6v-52.2h2.1v52.2h6v-52.2h1.18h14.58v-20.1h-10.74C273.22,278.84,266.7,266.87,262.54,258.95 M267.75,224.58
	c3.01,4.75,3.76,11.09,2.01,16.96c-1.84,6.16-6.12,11.04-12.07,13.74l-2.63,1.2l1.33,2.57c3.59,6.94,10.05,18.85,14.52,27.03h-3.18
	l-16.89-31.69c3.5-0.46,8.29-1.75,12.01-5.25c3.67-3.45,5.5-8.26,5.44-14.29c-0.14-14.63-12.94-17.37-25.06-17.67v-2.67
	C253.27,214.61,263.28,217.52,267.75,224.58 M243.22,230.78h1.25c2.32,0,5.5,0,7.7,0.93c1.16,0.49,2.26,0.96,2.26,4.07
	c0,3.45-1.36,4.05-2.08,4.37c-2.04,0.9-5.12,0.9-6.96,0.9h-2.16V230.78z M243.22,246.56h2.16c2.27,0,6.08,0,9.18-1.36
	c3.56-1.57,5.37-4.73,5.37-9.41c0-6.06-3.21-8.12-5.62-9.14c-3.23-1.37-7.05-1.37-9.84-1.37h-1.25v-2.6
	c16.05,0.46,19.49,5.23,19.56,12.22c0.04,4.42-1.2,7.85-3.69,10.21c-4.69,4.44-12.46,4-12.53,4l-3.34-0.23V246.56z M243.22,256.64
	v-0.72v-4.13l18.27,34.27h-3.02C254.67,278.43,248.27,266.21,243.22,256.64"/>
<path class="st0" d="M190.25,261.48c11.42,0,16.44-2.35,21.26-6.42c4.77-4.06,7.97-11.91,7.97-19.55c0-7.91-3.21-15.11-8.82-19.75
	c-4.1-3.38-9.27-5.48-22.33-5.48h-2.32v20.1h3.14c1.78,0,4.22,0,6.12,0.8c1.43,0.6,2.75,1.58,2.75,4.61c0,3.28-1.48,4.31-2.6,4.8
	c-1.79,0.79-4.2,0.79-5.63,0.79h-3.77v20.1h2.04H190.25z"/>
<path class="st0" d="M199.31,286.16l-37.47,92.13h5.38l36.04-88.52l0.72,2.29l-30.14,76.23h5.38l27.15-68.64l0.72,2.29l-22.24,56.35
	h5.38l5.77-14.63h24.18l1.53,4.88l3.09,9.73h24.15l-28.55-72.11H199.31z M203.09,325.68l6.38-16.16l5.07,16.16H203.09z"/>
</svg>
