<svg xmlns="http://www.w3.org/2000/svg" style="display: none;"><symbol id="male" viewBox="0 0 350 350"><title>male</title><path d="M175,171.173c38.914,0,70.463-38.318,70.463-85.586C245.463,38.318,235.105,0,175,0s-70.465,38.318-70.465,85.587 C104.535,132.855,136.084,171.173,175,171.173z"/><path d="M41.909,301.853C41.897,298.971,41.885,301.041,41.909,301.853L41.909,301.853z"/><path d="M308.085,304.104C308.123,303.315,308.098,298.63,308.085,304.104L308.085,304.104z"/><path d="M307.935,298.397c-1.305-82.342-12.059-105.805-94.352-120.657c0,0-11.584,14.761-38.584,14.761 s-38.586-14.761-38.586-14.761c-81.395,14.69-92.803,37.805-94.303,117.982c-0.123,6.547-0.18,6.891-0.202,6.131 c0.005,1.424,0.011,4.058,0.011,8.651c0,0,19.592,39.496,133.08,39.496c113.486,0,133.08-39.496,133.08-39.496 c0-2.951,0.002-5.003,0.005-6.399C308.062,304.575,308.018,303.664,307.935,298.397z"/></symbol><symbol id="eye" viewBox="0 0 488.85 488.85"><title>eye</title><path d="M244.425,98.725c-93.4,0-178.1,51.1-240.6,134.1c-5.1,6.8-5.1,16.3,0,23.1c62.5,83.1,147.2,134.2,240.6,134.2 s178.1-51.1,240.6-134.1c5.1-6.8,5.1-16.3,0-23.1C422.525,149.825,337.825,98.725,244.425,98.725z M251.125,347.025 c-62,3.9-113.2-47.2-109.3-109.3c3.2-51.2,44.7-92.7,95.9-95.9c62-3.9,113.2,47.2,109.3,109.3 C343.725,302.225,302.225,343.725,251.125,347.025z M248.025,299.625c-33.4,2.1-61-25.4-58.8-58.8c1.7-27.6,24.1-49.9,51.7-51.7 c33.4-2.1,61,25.4,58.8,58.8C297.925,275.625,275.525,297.925,248.025,299.625z"/></symbol><symbol id="programming" viewBox="0 0 412.996 412.996"><title>programming</title><path d="M392.996,28.338H20c-11.047,0-20,8.954-20,20v234c0,11.046,8.953,20,20,20h139.498v45.32h-54.283 c-10.201,0-18.5,8.299-18.5,18.5s8.299,18.5,18.5,18.5h202.566c10.201,0,18.5-8.299,18.5-18.5s-8.299-18.5-18.5-18.5h-54.283 v-45.32h139.498c11.047,0,20-8.954,20-20v-234C412.996,37.292,404.043,28.338,392.996,28.338z M382.996,272.338H30v-214h352.996 V272.338z"/><path d="M94.591,176.637l63.084,29.336c1.631,0.755,3.367,1.138,5.162,1.138c2.338,0,4.616-0.664,6.597-1.924 c3.548-2.267,5.666-6.13,5.666-10.335v-0.322c0-4.751-2.785-9.115-7.096-11.119l-39.455-18.33l39.456-18.334 c4.31-2.004,7.095-6.369,7.095-11.118v-0.319c0-4.211-2.119-8.074-5.665-10.334c-1.962-1.254-4.247-1.916-6.606-1.916 c-1.778,0-3.563,0.391-5.16,1.133L94.59,153.525c-4.308,2.005-7.091,6.369-7.091,11.117v0.878 C87.498,170.262,90.28,174.625,94.591,176.637z"/><path d="M175.662,236.389c2.301,3.149,6.002,5.029,9.901,5.029h0.315c5.352,0,10.042-3.426,11.672-8.516l41.557-128.76 c1.192-3.717,0.53-7.818-1.771-10.974c-2.301-3.149-6.002-5.03-9.901-5.03h-0.314c-5.354,0-10.048,3.426-11.679,8.516 L173.88,225.425C172.698,229.145,173.364,233.242,175.662,236.389z"/><path d="M237.896,135.628c0,4.746,2.782,9.11,7.095,11.122l39.455,18.33l-39.455,18.33c-4.311,2.004-7.096,6.368-7.096,11.119 v0.322c0,4.205,2.117,8.068,5.669,10.336c1.974,1.258,4.254,1.923,6.595,1.923c1.792,0,3.527-0.383,5.169-1.142l63.081-29.335 c4.307-2.009,7.089-6.372,7.089-11.115v-0.878c0-4.748-2.783-9.112-7.093-11.117l-63.08-29.334 c-1.591-0.739-3.373-1.131-5.152-1.131c-2.358,0-4.644,0.662-6.604,1.912c-3.554,2.264-5.673,6.127-5.673,10.338V135.628 L237.896,135.628z"/></symbol><symbol id="internet" viewBox="0 0 491.858 491.858"><title>internet</title><path d="M245.929,0.001C110.106,0.001,0,110.106,0,245.929s110.106,245.928,245.929,245.928 c54.538,0,104.919-17.764,145.702-47.806c-2.169-0.146-4.286-1.097-5.853-2.847l-40.28-45.014l-21.693,33.293l-17.911-90.492 l92.117,28.655l-39.651,17.035l40.28,45.016c1.869,2.086,2.503,4.825,2.012,7.378c55.635-45.087,91.206-113.957,91.206-191.147 C491.858,110.106,381.752,0.001,245.929,0.001z"/><g style="enable-background:new ;"> <path style="fill:#FFFFFF;" d="M91.849,263.346l2.255,12.53l0.25,0.084l2.757-12.614l18.21-57.806h12.53l18.211,57.806 l2.924,13.7h0.25l2.84-13.7l14.619-57.806h15.371l-26.23,90.385h-12.531l-17.876-55.718l-3.926-16.123h-0.25l-3.759,16.123 l-17.542,55.718H87.338l-26.23-90.385h15.454L91.849,263.346z"/> <path style="fill:#FFFFFF;" d="M221.329,263.346l2.255,12.53l0.25,0.084l2.757-12.614l18.21-57.806h12.531l18.211,57.806 l2.922,13.7h0.252l2.84-13.7l14.619-57.806h15.369l-26.229,90.385h-12.531l-17.877-55.718l-3.926-16.123h-0.25l-3.76,16.123 l-17.542,55.718h-12.614l-26.23-90.385h15.454L221.329,263.346z"/> <path style="fill:#FFFFFF;" d="M350.809,263.346l2.255,12.53l0.251,0.084l2.757-12.614l18.211-57.806h12.53l18.211,57.806 l2.923,13.7h0.251l2.84-13.7l14.619-57.806h15.37l-26.229,90.385h-12.53l-17.877-55.718l-3.926-16.123h-0.251l-3.759,16.123 l-17.543,55.718h-12.613l-26.23-90.385h15.454L350.809,263.346z"/> </g></symbol><symbol id="browser" viewBox="-18 -18 597.33331 597.33331"><title>browser</title><path d="m347.789062 236.671875c-18.414062 7.460937-37.945312 11.808594-57.789062 12.859375v60.46875h69.742188c-.683594-24.867188-4.703126-49.53125-11.953126-73.328125zm0 0"/><path d="m200.257812 310h69.742188v-60.46875c-19.84375-1.050781-39.375-5.398438-57.789062-12.859375-7.25 23.796875-11.269532 48.460937-11.953126 73.328125zm0 0"/><path d="m212.210938 403.328125c18.414062-7.460937 37.945312-11.808594 57.789062-12.859375v-60.46875h-69.742188c.683594 24.867188 4.703126 49.53125 11.953126 73.328125zm0 0"/><path d="m290 161.460938v68.117187c17.535156-1.082031 34.765625-5.054687 51-11.769531-12.757812-30.15625-30.839844-51.050782-51-56.347656zm0 0"/><path d="m379.679688 195.078125c-.519532-.410156-1-.867187-1.519532-1.269531-1.519531-1.1875-3.089844-2.289063-4.648437-3.417969-2.308594-1.671875-4.628907-3.320313-7.003907-4.859375-1.660156-1.074219-3.347656-2.070312-5-3.078125-2.375-1.421875-4.789062-2.796875-7.242187-4.085937-1.769531-.929688-3.554687-1.824219-5.34375-2.679688-2.480469-1.175781-5-2.289062-7.519531-3.347656-1.691406-.699219-3.394532-1.386719-5.105469-1.996094 9.40625 11.734375 17.09375 24.753906 22.835937 38.65625 7.199219-4.09375 14.070313-8.75 20.546876-13.921875zm0 0"/><path d="m219 217.808594c16.234375 6.714844 33.464844 10.6875 51 11.769531v-68.117187c-20.160156 5.296874-38.242188 26.191406-51 56.347656zm0 0"/><path d="m270 478.539062v-68.117187c-17.535156 1.082031-34.765625 5.054687-51 11.769531 12.757812 30.15625 30.839844 51.050782 51 56.347656zm0 0"/><path d="m193.808594 227.820312c-10.011719-5.496093-19.472656-11.929687-28.257813-19.222656-26.640625 27.339844-42.613281 63.3125-45.035156 101.402344h59.753906c.605469-27.894531 5.160157-55.566406 13.539063-82.179688zm0 0"/><path d="m180.269531 330h-59.753906c2.410156 38.089844 18.371094 74.0625 45 101.402344 8.789063-7.296875 18.253906-13.730469 28.265625-19.222656-8.371094-26.617188-12.917969-54.285157-13.511719-82.179688zm0 0"/><path d="m180.320312 444.921875c.519532.410156 1 .867187 1.519532 1.269531 1.519531 1.1875 3.089844 2.289063 4.648437 3.417969 2.308594 1.671875 4.628907 3.320313 7.003907 4.859375 1.660156 1.074219 3.347656 2.070312 5 3.078125 2.375 1.421875 4.789062 2.796875 7.242187 4.085937 1.761719.929688 3.546875 1.824219 5.34375 2.679688 2.480469 1.175781 5 2.289062 7.519531 3.347656 1.691406.699219 3.394532 1.386719 5.105469 1.996094-9.40625-11.734375-17.09375-24.753906-22.835937-38.65625-7.199219 4.09375-14.070313 8.75-20.546876 13.921875zm0 0"/><path d="m223.75 170.308594c-1.71875.644531-3.429688 1.339844-5.132812 2-2.507813 1.050781-5 2.148437-7.445313 3.332031-1.820313.867187-3.632813 1.773437-5.410156 2.710937-2.433594 1.265626-4.808594 2.628907-7.171875 3.996094-1.710938 1.003906-3.429688 2.003906-5.109375 3.128906-2.363281 1.523438-4.652344 3.140626-6.933594 4.792969-1.578125 1.152344-3.167969 2.261719-4.707031 3.472657-.519532.398437-1 .859374-1.519532 1.265624 6.472657 5.195313 13.34375 9.875 20.546876 13.992188 5.753906-13.917969 13.460937-26.945312 22.882812-38.691406zm0 0"/><path d="m560 30c0-16.566406-13.433594-30-30-30h-500c-16.566406 0-30 13.433594-30 30v30h560zm-510 10h-20v-20h20zm40 0h-20v-20h20zm40 0h-20v-20h20zm0 0"/><path d="m366.191406 227.820312c8.378906 26.613282 12.933594 54.285157 13.539063 82.179688h59.753906c-2.410156-38.089844-18.371094-74.0625-45-101.402344-8.800781 7.296875-18.273437 13.730469-28.292969 19.222656zm0 0"/><path d="m560 80h-560v450c0 16.566406 13.433594 30 30 30h500c16.566406 0 30-13.433594 30-30zm-158.101562 372.320312c-4.148438 3.851563-8.46875 7.46875-12.917969 10.878907-22.179688 16.957031-48.023438 28.484375-75.460938 33.660156-11.050781 2.085937-22.273437 3.136719-33.519531 3.140625-74.144531.03125-140.722656-45.429688-167.679688-114.5-26.960937-69.074219-8.785156-147.613281 45.78125-197.820312 4.148438-3.851563 8.46875-7.46875 12.917969-10.878907 76.464844-58.222656 185.183594-46.074219 246.910157 27.589844 61.726562 73.660156 54.667968 182.832031-16.03125 247.929687zm0 0"/><path d="m366.191406 412.179688c10.011719 5.496093 19.472656 11.929687 28.257813 19.222656 26.640625-27.339844 42.613281-63.3125 45.035156-101.402344h-59.753906c-.605469 27.894531-5.160157 55.566406-13.539063 82.179688zm0 0"/><path d="m359.742188 330h-69.742188v60.46875c19.84375 1.050781 39.375 5.398438 57.789062 12.859375 7.25-23.796875 11.269532-48.460937 11.953126-73.328125zm0 0"/><path d="m290 410.421875v68.117187c20.160156-5.296874 38.242188-26.191406 51-56.347656-16.234375-6.714844-33.464844-10.6875-51-11.769531zm0 0"/><path d="m336.25 469.691406c1.71875-.644531 3.429688-1.339844 5.132812-2 2.507813-1.050781 5-2.148437 7.445313-3.332031 1.820313-.867187 3.632813-1.773437 5.410156-2.710937 2.433594-1.265626 4.800781-2.621094 7.164063-3.996094 1.71875-1.003906 3.4375-2.003906 5.125-3.140625 2.355468-1.523438 4.644531-3.140625 6.925781-4.789063 1.578125-1.152344 3.167969-2.261718 4.707031-3.472656.519532-.398438 1-.859375 1.519532-1.269531-6.472657-5.191407-13.34375-9.867188-20.546876-13.980469-5.753906 13.917969-13.460937 26.945312-22.882812 38.691406zm0 0"/></symbol><symbol id="beaker" viewBox="0 0 505.821 505.82"><title>beaker</title><path d="M440.636,467.323c0,21.226-17.26,38.497-38.491,38.497H103.687c-21.246,0-38.503-17.271-38.503-38.497 c0-2.058,0.381-4.103,1.114-6.023l103.379-270.926c0.036-0.429,0.098-0.86,0.151-1.283V33.848h-12.215 c-9.351,0-16.917-7.578-16.917-16.925C140.697,7.578,148.263,0,157.614,0h29.131c9.351,0,16.931,7.578,16.931,16.923v173.475 c0,0.976-0.085,1.939-0.248,2.899c0,2.066-0.497,4.844-1.241,6.762l-62.27,163.182h224.529l-64.332-163.001 c-0.697-1.756-1.088-3.611-1.171-5.488l-0.142-1.022c-0.07-0.668-0.106-1.333-0.106-1.998V16.923C298.695,7.578,306.26,0,315.612,0 h29.896c9.351,0,16.916,7.578,16.916,16.923c0,9.348-7.565,16.925-16.916,16.925h-12.986v156.357L439.448,461.11 C440.234,463.097,440.636,465.195,440.636,467.323z M220.126,325.535c0-6.998,5.683-12.69,12.688-12.69 c7.001,0,12.696,5.687,12.696,12.69c0,6.992-5.695,12.69-12.696,12.69C225.809,338.226,220.126,332.527,220.126,325.535z M228.576,325.535c0,2.329,1.9,4.227,4.232,4.227c2.329,0,4.229-1.897,4.229-4.227c0-2.334-1.9-4.231-4.229-4.231 C230.476,321.304,228.576,323.201,228.576,325.535z M285.691,312.845c0-6.998,5.692-12.696,12.696-12.696 c6.999,0,12.685,5.692,12.685,12.696c0,6.987-5.686,12.69-12.685,12.69C291.383,325.535,285.691,319.844,285.691,312.845z M294.15,312.845c0,2.329,1.897,4.221,4.231,4.221c2.329,0,4.227-1.892,4.227-4.221c0-2.341-1.897-4.231-4.227-4.231 C296.047,308.613,294.15,310.516,294.15,312.845z M250.425,270.542c0-9.724,7.912-17.632,17.64-17.632 c9.712,0,17.626,7.908,17.626,17.632c0,9.711-7.914,17.632-17.626,17.632C258.331,288.174,250.425,280.265,250.425,270.542z M258.886,270.542c0,5.054,4.116,9.167,9.179,9.167c5.048,0,9.174-4.113,9.174-9.167c0-5.06-4.126-9.18-9.174-9.18 C263.002,261.362,258.886,265.482,258.886,270.542z"/></symbol><symbol id="seo-and-web" viewBox="0 -4 471.78803 471"><title>seo-and-web</title><path d="m217.644531 188.875c1.675781-10.949219 6.925781-21.035156 14.933594-28.683594l56.5625-54.617187h-289.140625v84h217.5zm-179.183593-12.617188c-15.75 0-28.5625-13.265624-28.5625-29.570312s12.8125-29.570312 28.5625-29.570312 28.5625 13.265624 28.5625 29.570312-12.8125 29.570312-28.5625 29.570312zm0 0"/><path d="m243.699219 171.492188c-5.484375 5.300781-9.078125 12.257812-10.222657 19.796874l-5.757812 39.066407c-.257812 1.742187-1.082031 3.351562-2.347656 4.578125l-17.691406 17.144531c-.507813.46875-.800782 1.125-.820313 1.8125-.015625.671875.234375 1.324219.699219 1.808594l.085937.085937c1.296875 1.246094 3.347657 1.246094 4.644531 0l17.652344-17.109375c1.222656-1.183593 2.789063-1.945312 4.472656-2.179687l40.324219-5.582032c4.75-.640624 9.332031-2.203124 13.484375-4.597656l-12.121094-11.75c-3.175781-3.074218-3.253906-8.140625-.179687-11.3125 3.078125-3.171875 8.140625-3.253906 11.3125-.175781l13.289063 12.875 19.925781-19.3125-25.5-24.710937c-2.078125-1.980469-2.933594-4.925782-2.238281-7.714844.691406-2.789063 2.828124-4.992188 5.589843-5.769532 2.765625-.78125 5.738281-.019531 7.785157 1.996094l25.855468 25.058594 19.925782-19.3125-12.925782-12.53125c-3.132812-3.082031-3.195312-8.113281-.136718-11.269531 3.058593-3.15625 8.089843-3.253907 11.269531-.21875l13.289062 12.878906 19.925781-19.3125-25.5-24.710937c-3.171874-3.078126-3.253906-8.140626-.175781-11.3125 3.074219-3.175782 8.136719-3.253907 11.3125-.179688l25.851563 25.0625 19.332031-18.742188-51.339844-49.765624zm0 0"/><path d="m181.523438 296.363281-21.464844 26.683594c-8.226563 10.242187-7.292969 25.066406 2.15625 34.195313 10.78125 10.359374 27.820312 10.359374 38.601562 0 9.441406-9.117188 10.390625-23.921876 2.183594-34.167969zm0 0"/><path d="m51.023438 146.6875c0-7.496094-5.625-13.570312-12.5625-13.570312s-12.5625 6.074218-12.5625 13.570312 5.625 13.570312 12.5625 13.570312 12.5625-6.074218 12.5625-13.570312zm0 0"/><path d="m431 189.574219v-68.257813c-1-.925781-3.292969-2.199218-4.828125-3.667968l-.558594-.824219-75.238281 72.75zm0 0"/><path d="m431 205.574219h-97.132812l-27.328126 26.65625c-.085937.085937-.175781.332031-.261718.414062l-.011719.015625c-.203125.210938-.417969.40625-.644531.59375-7.949219 7.351563-17.972656 12.070313-28.707032 13.511719l-37.714843 5.21875-15.808594 15.324219c-7.480469 7.210937-19.320313 7.222656-26.8125.023437-.199219-.191406-.398437-.398437-.585937-.597656-7.070313-7.421875-6.808594-19.164063.585937-26.265625l15.703125-15.300781 2.863281-19.59375h-215.144531v257h431zm-219.117188 163.238281c-16.964843 16.292969-43.765624 16.289062-60.726562-.007812-15.421875-14.894532-16.957031-39.082032-3.546875-55.808594l27.679687-34.414063c1.515626-1.886719 3.808594-2.984375 6.234376-2.984375 2.421874 0 4.714843 1.097656 6.234374 2.984375l27.699219 34.4375c13.394531 16.730469 11.847657 40.910157-3.574219 55.792969zm0 0"/><path d="m466.46875 5.78125c-7.429688-7.175781-19.207031-7.183594-26.644531-.015625l-40.066407 38.832031c-3.101562 3.007813-8.03125 3.007813-11.136718 0l-18.820313-18.246094c-2.1875-2.070312-5.613281-2.0625-7.792969.019532-1.84375 1.761718-1.914062 4.6875-.15625 6.535156.050782.054688.097657.109375.160157.160156l6.324219 6.128906 62.84375 60.910157.011718.011719 6.273438 6.078124c2.183594 2.054688 5.597656 2.035157 7.761718-.042968 1.84375-1.78125 1.902344-4.714844.128907-6.566406l-.140625-.140626-18.886719-18.304687c-1.554687-1.507813-2.433594-3.582031-2.433594-5.746094 0-2.164062.878907-4.238281 2.433594-5.742187l40.09375-38.863282c6.914063-6.589843 7.183594-17.539062.59375-24.460937-.171875-.179687-.359375-.367187-.546875-.546875zm0 0"/></symbol><symbol id="directional-wooden-signs" viewBox="0 0 47.001 47"><title>directional-wooden-signs</title><path d="M46.41,9.192l-5.342-2.67c-0.147-0.074-0.312-0.113-0.478-0.113H25.637V2.136C25.637,0.958,24.68,0,23.5,0 s-2.136,0.957-2.136,2.136v13.887H6.409c-0.166,0-0.33,0.039-0.478,0.112l-5.341,2.67C0.228,18.986,0,19.356,0,19.761 c0,0.405,0.229,0.775,0.59,0.956l5.341,2.67C6.08,23.461,6.243,23.5,6.409,23.5h14.955v15.555h-4.573 c-5.668,0-6.109,3.858-6.109,5.041v0.769c0,1.18,0.957,2.136,2.137,2.136h21.363c1.18,0,2.137-0.957,2.137-2.136v-0.769 c0-1.182-0.44-5.041-6.108-5.041h-4.573V13.886h14.955c0.166,0,0.33-0.039,0.479-0.112l5.341-2.671 c0.362-0.181,0.59-0.551,0.59-0.955C47,9.744,46.771,9.374,46.41,9.192z M40.339,11.75H25.637V8.545h14.702l3.205,1.603 L40.339,11.75z"/></symbol><symbol id="visibility" viewBox="0 0 512.008 512.008"><title>visibility</title><g> <g> <path d="M256.011,106.673c-131.435,0-248.555,136.619-253.483,142.443c-3.371,3.968-3.371,9.792,0,13.781 c2.944,3.477,45.995,53.461,108.075,93.269l66.859-66.859c-4.352-10.24-6.784-21.483-6.784-33.301 c0-47.061,38.272-85.333,85.333-85.333c11.819,0,23.061,2.432,33.301,6.784l54.976-54.976 C317.493,112.902,288.075,106.673,256.011,106.673z"/> </g> </g><g> <g> <path d="M510.112,249.926c-2.731-3.947-48.021-67.691-124.16-108.779l58.944-58.944c4.16-4.16,4.16-10.923,0-15.083 c-4.16-4.16-10.923-4.16-15.083,0L67.147,429.788c-4.16,4.16-4.16,10.923,0,15.083c2.069,2.091,4.8,3.136,7.531,3.136 c2.731,0,5.461-1.045,7.552-3.115l66.88-66.88c32.96,16.085,69.312,27.328,106.901,27.328 c131.435,0,248.555-136.619,253.483-142.443C512.587,259.206,512.864,253.894,510.112,249.926z M256.011,341.34 c-19.691,0-37.589-6.976-52.053-18.197l119.189-119.189c11.221,14.464,18.197,32.363,18.197,52.053 C341.344,303.068,303.072,341.34,256.011,341.34z"/> </g> </g></symbol><symbol id="audience" viewBox="0 0 512 512"><title>audience</title><g> <g> <path d="M318.72,293.065c-12.87-7.03-27.63-11.02-43.32-11.02h-37.29c-16.13,0-31.27,4.22-44.38,11.61 c-27.57,15.52-46.19,45.07-46.19,78.96v27.94h218.43v-27.94C365.97,338.285,346.87,308.425,318.72,293.065z"/> </g> </g><g> <g> <path d="M421.7,257.225h-31c-18.1,0-34.97,5.35-49.12,14.57c6.8,4.46,13.19,9.67,19.08,15.56c22.77,22.77,35.31,53.05,35.31,85.26 v13.14H512v-38.23C512,297.735,471.49,257.225,421.7,257.225z"/> </g> </g><g> <g> <path d="M121.3,257.225h-31c-49.79,0-90.3,40.51-90.3,90.3v38.23h117.54v-13.14c0-32.21,12.55-62.49,35.32-85.26 c5.67-5.67,11.8-10.71,18.32-15.06C156.88,262.775,139.73,257.225,121.3,257.225z"/> </g> </g><g> <g> <path d="M406.153,121.416c-0.159,0-0.324,0.001-0.484,0.003c-33.558,0.277-60.622,29.282-60.33,64.655 c0.291,35.205,27.565,63.652,60.906,63.652c0.16,0,0.324-0.001,0.484-0.003c16.455-0.136,31.81-7.068,43.238-19.521 c11.162-12.164,17.232-28.192,17.093-45.134C466.769,149.863,439.495,121.416,406.153,121.416z"/> </g> </g><g> <g> <path d="M105.754,121.416c-0.159,0-0.324,0.001-0.484,0.003c-33.558,0.277-60.622,29.282-60.33,64.655 c0.29,35.205,27.565,63.652,60.906,63.652c0.16,0,0.324-0.001,0.484-0.003c16.454-0.136,31.81-7.068,43.238-19.521 c11.163-12.164,17.233-28.192,17.093-45.134C166.37,149.863,139.096,121.416,105.754,121.416z"/> </g> </g><g> <g> <path d="M256.76,111.445c-38.69,0-70.16,33.25-70.16,74.13c0,29.54,16.44,55.1,40.17,67c9.1,4.57,19.27,7.12,29.99,7.12 c10.72,0,20.89-2.55,29.99-7.12c23.73-11.9,40.17-37.46,40.17-67C326.92,144.695,295.45,111.445,256.76,111.445z"/> </g> </g></symbol><symbol id="target" viewBox="0 0 953 953"><title>target</title><path d="M430.589,953c236.6,0,428.401-191.801,428.401-428.4c0-72.799-18.102-141.299-50.102-201.299c-3.5,0.5-7.1,0.7-10.6,0.7 c-2,0-4.1-0.1-6.199-0.2l-54.5-4.2l-39.201,39.2c29.9,48.2,47.201,105,47.201,165.799c0,173.9-141,314.9-314.901,314.9 c-173.899,0-315-141-315-314.9c0-173.899,141-314.899,314.9-314.899c60.901,0,117.7,17.3,165.799,47.2l35.5-35.5l-4.799-62.5 c-0.4-5-0.301-10,0.199-14.9c-58.9-30.5-125.799-47.8-196.799-47.8c-236.5,0-428.3,191.8-428.3,428.399S193.989,953,430.589,953z"/><path d="M430.589,413.9c2.8,0,5.6,0.101,8.4,0.3l79.1-79.1l1.699-1.7c-27.1-12.7-57.299-19.8-89.2-19.8 c-116.5,0-210.9,94.4-210.9,210.9c0,116.5,94.4,211,210.9,211c116.5,0,210.901-94.4,210.901-210.9 c0-31.9-7.102-62.099-19.801-89.2l-1.699,1.7l-79.102,79.099c0.201,2.801,0.301,5.602,0.301,8.4 c0,61.1-49.5,110.701-110.7,110.701c-61.2,0-110.601-49.602-110.601-110.701C319.889,463.5,369.489,413.9,430.589,413.9z"/><path d="M872.089,142.6l25.4-25.4c11.6-11.6,11.6-30.3,0-41.9l-17.602-17.7c-5.799-5.8-13.398-8.7-20.898-8.7 s-15.201,2.9-20.9,8.7l-29.1,29.1l-6-77.5c-0.4-5.7-5.102-9.2-10-9.2c-2.5,0-5,0.9-7,2.9l-114.5,114.5 c-10.301,10.3-15.602,24.6-14.5,39.2l0.299,4.5l5.5,71.7l-41.4,41.4l-74.5,74.5l-1.699,1.7l-72.1,72.101l-32,32 c-4.2,4.199-6.8,9.8-7.2,15.699l-2,25.101c-1.2,14.6,10.4,27,24.9,27c0.399,0,0.8,0,1.3,0l26.5-1.301 c6.199-0.301,12.1-2.9,16.4-7.301L532.689,482l72.1-72.1l1.701-1.7l74.5-74.5l45-45l65.398,5l2.9,0.2c1.301,0.1,2.6,0.1,3.801,0.1 c13.199,0,25.9-5.2,35.4-14.6L947.888,165c6-6,2.201-16.4-6.299-17L872.089,142.6z"/></symbol></svg>