<svg xmlns="http://www.w3.org/2000/svg" style="display: none;"><symbol id="facebook-logo" viewBox="0 0 96.124 96.123"><title>facebook-logo</title><path d="M72.089,0.02L59.624,0C45.62,0,36.57,9.285,36.57,23.656v10.907H24.037c-1.083,0-1.96,0.878-1.96,1.961v15.803 c0,1.083,0.878,1.96,1.96,1.96h12.533v39.876c0,1.083,0.877,1.96,1.96,1.96h16.352c1.083,0,1.96-0.878,1.96-1.96V54.287h14.654 c1.083,0,1.96-0.877,1.96-1.96l0.006-15.803c0-0.52-0.207-1.018-0.574-1.386c-0.367-0.368-0.867-0.575-1.387-0.575H56.842v-9.246 c0-4.444,1.059-6.7,6.848-6.7l8.397-0.003c1.082,0,1.959-0.878,1.959-1.96V1.98C74.046,0.899,73.17,0.022,72.089,0.02z"/></symbol><symbol id="twitter-logo-silhouette" viewBox="0 0 612 612"><title>twitter-logo-silhouette</title><path d="M612,116.258c-22.525,9.981-46.694,16.75-72.088,19.772c25.929-15.527,45.777-40.155,55.184-69.411 c-24.322,14.379-51.169,24.82-79.775,30.48c-22.907-24.437-55.49-39.658-91.63-39.658c-69.334,0-125.551,56.217-125.551,125.513 c0,9.828,1.109,19.427,3.251,28.606C197.065,206.32,104.556,156.337,42.641,80.386c-10.823,18.51-16.98,40.078-16.98,63.101 c0,43.559,22.181,81.993,55.835,104.479c-20.575-0.688-39.926-6.348-56.867-15.756v1.568c0,60.806,43.291,111.554,100.693,123.104 c-10.517,2.83-21.607,4.398-33.08,4.398c-8.107,0-15.947-0.803-23.634-2.333c15.985,49.907,62.336,86.199,117.253,87.194 c-42.947,33.654-97.099,53.655-155.916,53.655c-10.134,0-20.116-0.612-29.944-1.721c55.567,35.681,121.536,56.485,192.438,56.485 c230.948,0,357.188-191.291,357.188-357.188l-0.421-16.253C573.872,163.526,595.211,141.422,612,116.258z"/></symbol><symbol id="sprintathon-button-red-arrow" viewBox="0 0 16 22"><title>sprintathon-button-red-arrow</title><style type="text/css"> .st0{fill-rule:evenodd;clip-rule:evenodd;fill:#E40B18;} </style><path id="V" class="st0" d="M16,12.7V9.3L0,0v4.2l12.2,6.7L0,17.7V22L16,12.7z"/></symbol><symbol id="sprintathon-icons-dna" viewBox="0 0 54.53 79.75"><title>sprintathon-icons-dna</title><style type="text/css"> .st0{fill-rule:evenodd;clip-rule:evenodd;fill:#E40B18;} </style><path id="DNA" class="st0" d="M31.49,40.23C55.51,29.42,54.53,1.82,54.52,1.53c-0.05-0.87-0.79-1.55-1.66-1.52 c-0.85,0.02-1.52,0.72-1.5,1.56c0,0.01,0,0.02,0,0.04c-0.01,5.94-1.18,11.81-3.47,17.29c-0.55-0.42-1.22-0.65-1.91-0.65H15.92 c-1.74,0-3.15,1.41-3.15,3.15c0,1.74,1.41,3.15,3.15,3.15h29c-4.18,6.55-10.49,11.46-17.87,13.9C12.7,33.26,6.94,22.16,4.66,13.5 c0.07,0,0.13,0.02,0.19,0.02h37.97c1.74,0,3.16-1.41,3.16-3.16s-1.41-3.16-3.16-3.16H4.85c-0.47,0-0.93,0.11-1.35,0.31 C3.24,5.58,3.13,3.63,3.18,1.67C3.21,0.8,2.54,0.06,1.67,0.01C0.81-0.04,0.08,0.6,0.02,1.46C0,1.75-0.98,29.26,23.04,40.06 C-0.73,50.89,0,78.28,0.01,78.57c0.07,0.73,0.71,1.26,1.44,1.19c0.05,0,0.09-0.01,0.14-0.02h0.06c0.71,0.12,1.38-0.35,1.5-1.06 c0.01-0.08,0.02-0.15,0.02-0.23c0.04-5.65,1.16-11.24,3.29-16.47c0.47,0.27,1.01,0.42,1.55,0.42h30.06c1.74,0,3.16-1.41,3.16-3.16 s-1.41-3.16-3.16-3.16l0,0H9.47c4.17-6.7,10.54-11.74,18.02-14.26c14.51,5.32,20.24,16.72,22.47,25.41 c-0.26-0.07-0.53-0.11-0.8-0.11h-36.4c-1.74,0-3.15,1.41-3.15,3.15c0,1.74,1.41,3.15,3.15,3.15h36.39c0.67,0,1.33-0.22,1.87-0.62 c0.25,1.87,0.37,3.76,0.34,5.65c-0.01,0.71,0.57,1.29,1.28,1.3c0.08,0,0.16-0.01,0.24-0.02h0.06c0.71,0.15,1.41-0.31,1.56-1.02 c0.01-0.05,0.02-0.1,0.02-0.15C54.53,78.28,55.26,51.04,31.49,40.23z"/></symbol><symbol id="sprintathon-chevron" viewBox="0 0 362.47 205"><title>sprintathon-chevron</title><style type="text/css"> .st0{fill:#C70612;} </style><polygon class="st0" points="163.11,200.98 163.11,204.99 174.18,204.99 181.24,199.27 188.22,205 199.36,205 199.36,200.89 181.24,186.36 "/><polygon class="st0" points="181.24,0 0.01,146.17 0,186.23 109.37,186.27 181.24,129.04 253.1,186.32 362.46,186.36 362.47,145.25 "/></symbol><symbol id="sprintathon-icons-sieve" viewBox="0 0 70 73"><title>sprintathon-icons-sieve</title><style type="text/css"> .st0{fill:#E40B18;} </style><g> <path class="st0" d="M57.04,31.48c-0.47,0-43.8,0-44.27,0c-0.47,0-0.85,0.38-0.85,0.85v26.7c0,3.29,2.67,5.96,5.96,5.96h34.06 c3.29,0,5.96-2.67,5.96-5.96v-26.7C57.89,31.86,57.51,31.48,57.04,31.48z"/> <path class="st0" d="M65.3,12.2h-2.86l0-2.21c0-0.09,0-0.18,0-0.26c-0.07-2.43-2.1-4.33-4.5-4.28V2.25c0-1.24-1.01-2.25-2.25-2.25 s-2.25,1.01-2.25,2.25l0,3.19c-0.07,0-0.15,0-0.23,0c-1.18,0.03-2.27,0.53-3.08,1.38c-0.81,0.86-1.23,1.98-1.2,3.12v2.25H20.88 l0-2.21c0-0.09,0-0.18,0-0.26c-0.03-1.18-0.53-2.27-1.38-3.08c-0.86-0.81-1.96-1.23-3.12-1.2V2.25c0-1.24-1.01-2.25-2.25-2.25 s-2.25,1.01-2.25,2.25l0,3.19c-0.07,0-0.15,0-0.23,0c-1.18,0.03-2.27,0.53-3.08,1.38C7.76,7.68,7.33,8.8,7.37,9.95v2.25H4.5 c-2.48,0-4.5,2.02-4.5,4.5v6.76c0,2.09,1.44,3.84,3.38,4.34v36.19c0.01,4.96,4.05,9,9.01,9.01h45.04c4.96-0.01,9-4.05,9.01-9.01 V27.8c1.94-0.5,3.38-2.25,3.38-4.34V16.7C69.81,14.22,67.79,12.2,65.3,12.2z M57.42,68.5H12.39c-2.48,0-4.5-2.02-4.5-4.5V27.96 h54.05v36.03C61.92,66.47,59.9,68.49,57.42,68.5z M65.3,16.7v6.76H4.5l0-6.76h0H65.3z M11.86,9.95 C11.87,9.95,11.87,9.95,11.86,9.95l4.51-0.01c0,0,0,0,0,0.01v2.25h-4.51L11.86,9.95z M53.43,9.95C53.43,9.95,53.43,9.95,53.43,9.95 l4.51-0.01c0,0,0,0,0,0.01v2.25h-4.51L53.43,9.95z"/> </g></symbol><symbol id="sprintathon-logo-standupotocancer" viewBox="0 0 89.81 54.63"><title>sprintathon-logo-standupotocancer</title><style type="text/css"> .st0{fill:#E40B18;} </style><path class="st0" d="M48.33,2.25h0.6V1.54h-0.6V1.15c0-0.27,0.08-0.41,0.3-0.41c0.11,0,0.2,0.04,0.3,0.08V0.08 C48.81,0.02,48.69,0,48.56,0c-0.33,0-0.63,0.14-0.85,0.39c-0.24,0.27-0.25,0.51-0.25,0.85v0.31h-0.3v0.71h0.3v1.72h0.86L48.33,2.25 L48.33,2.25z M45.53,2.21c0.35,0,0.55,0.25,0.55,0.55c0,0.31-0.2,0.54-0.55,0.54s-0.55-0.24-0.55-0.54S45.18,2.21,45.53,2.21 M45.53,1.46c-0.78,0-1.46,0.47-1.46,1.29s0.68,1.29,1.46,1.29s1.46-0.47,1.46-1.29C46.99,1.93,46.31,1.46,45.53,1.46 M40.71,2.21 c0.35,0,0.55,0.25,0.55,0.55c0,0.31-0.2,0.54-0.55,0.54s-0.55-0.24-0.55-0.54C40.15,2.46,40.36,2.21,40.71,2.21 M41.23,3.97h0.86 V0.05h-0.86v1.73c-0.18-0.21-0.47-0.32-0.75-0.32c-0.72,0-1.21,0.6-1.21,1.29s0.51,1.29,1.22,1.29c0.28,0,0.58-0.11,0.73-0.35h0.01 V3.97z M38.41,0.13c-0.26,0-0.48,0.22-0.48,0.48c0,0.27,0.22,0.48,0.48,0.48s0.48-0.22,0.48-0.48S38.68,0.13,38.41,0.13 M38.84,1.54 h-0.86v2.42h0.86V1.54z M37.41,1.54h-0.86v0.24c-0.18-0.21-0.47-0.32-0.75-0.32c-0.72,0-1.21,0.6-1.21,1.29s0.51,1.29,1.22,1.29 c0.28,0,0.58-0.11,0.73-0.35h0.01v0.27h0.86V1.54z M36.03,2.21c0.35,0,0.55,0.25,0.55,0.55c0,0.31-0.2,0.54-0.55,0.54 s-0.55-0.24-0.55-0.54C35.47,2.46,35.68,2.21,36.03,2.21 M30.88,1.54h-0.86v2.42h0.86V2.71c0-0.3,0.1-0.56,0.45-0.56 c0.43,0,0.39,0.41,0.39,0.64v1.18h0.86v-1.5c0-0.6-0.26-1.01-0.91-1.01c-0.34,0-0.58,0.1-0.78,0.39h-0.01 C30.88,1.85,30.88,1.54,30.88,1.54z M29.43,0.41H28.5v3.56h0.93V0.41z"/><path class="st0" d="M88.06,41.66v-0.4h0.34c0.15,0,0.35,0,0.35,0.16c0,0.2-0.1,0.24-0.27,0.24H88.06z M88.65,41.89 c0.28-0.02,0.43-0.14,0.43-0.43c0-0.41-0.25-0.48-0.61-0.48h-0.76v1.57h0.35v-0.66h0.24l0.35,0.66h0.38L88.65,41.89z M88.31,42.94 c-0.66,0-1.15-0.48-1.15-1.15c0-0.68,0.49-1.16,1.15-1.16c0.65,0,1.15,0.48,1.15,1.16C89.46,42.46,88.95,42.94,88.31,42.94 M88.31,43.3c0.84,0,1.51-0.67,1.51-1.51s-0.67-1.51-1.51-1.51c-0.84,0-1.51,0.67-1.51,1.51C86.8,42.62,87.47,43.3,88.31,43.3"/><path class="st0" d="M27.44,11.55c0,0-8.51-8.49-8.54-8.53l-0.02,0.02l-0.02-0.02c-0.03,0.03-8.54,8.53-8.54,8.53l3.09,3.09 l3.29-3.29c0,0.57-0.01,1.56-0.01,1.66v41.62h4.37V13.01c0-0.11,0-1.07-0.01-1.66l3.29,3.29L27.44,11.55z"/><path class="st0" d="M12.82,19.64c0,0-6.37-6.36-6.39-6.39l-0.01,0.01L6.4,13.25C6.37,13.28,0,19.64,0,19.64l2.32,2.32l2.46-2.46 c0,0.43,0,1.17,0,1.24v27.91h3.27V20.74c0-0.08,0-0.8-0.01-1.24l2.46,2.46L12.82,19.64z"/><path class="st0" d="M29.07,23.48v0.14c0,0.99,0.37,1.46,1.1,1.46c0.71,0,1.14-0.37,1.14-1c0-1.11-0.83-1.19-2.16-1.78 c-1.8-0.82-2.72-1.99-2.72-3.45c0-2.16,1.66-3.7,4.11-3.7c2.18,0,3.67,1.39,3.67,3.55v0.19H31.5c0-0.75-0.41-1.17-1.1-1.17 c-0.54,0-0.93,0.37-0.93,0.9c0,0.9,0.88,1.09,2.43,1.89c1.65,0.85,2.45,1.92,2.45,3.37c0,2.11-1.73,3.84-3.98,3.84 c-2.68,0-4.11-1.36-4.11-3.94v-0.27h2.81V23.48z"/><polygon class="st0" points="36.07,27.45 36.07,18.17 33.83,18.17 33.83,15.37 41.32,15.37 41.32,18.17 39.03,18.17 39.03,27.45 "/><polygon class="st0" points="50.48,27.45 50.48,15.37 53.15,15.37 57.59,22.08 57.59,15.37 60.54,15.37 60.54,27.45 57.94,27.45 53.44,20.72 53.44,27.45 "/><path class="st0" d="M29.85,27.94v7.45c0,1.36,0.42,2.06,1.43,2.06c1.04,0,1.53-0.68,1.53-2.06v-7.45h2.96v7.56 c0,2.96-1.8,4.71-4.5,4.71c-2.74,0-4.39-1.68-4.39-4.71v-7.56H29.85z"/><polygon class="st0" points="47.45,40.02 47.45,30.74 45.2,30.74 45.2,27.94 52.7,27.94 52.7,30.74 50.4,30.74 50.4,40.02 "/><path class="st0" d="M16.28,25.74c0,0-3.77-3.77-3.79-3.78l-0.01,0.01l-0.01-0.01c-0.02,0.01-3.79,3.78-3.79,3.78l1.37,1.37 l1.46-1.46c0,0.25,0,0.69,0,0.74v19.36h1.92l0.03-19.36c0-0.05,0-0.48,0-0.74l1.46,1.46L16.28,25.74z"/><path class="st0" d="M31.8,52.92c-1.78,0-3.3-0.66-4.49-1.92c-1.14-1.21-1.72-2.7-1.72-4.49c0-1.67,0.63-3.2,1.84-4.37 c1.19-1.17,2.69-1.78,4.4-1.78c2.82,0,5.24,1.85,6.02,4.83h-3.2c-0.65-1.19-1.61-1.82-2.8-1.82c-1.8,0-3.21,1.39-3.21,3.16 c0,1.92,1.5,3.4,3.16,3.4c1.14,0,2.14-0.61,2.79-1.73h3.21C37,51.14,34.71,52.92,31.8,52.92"/><polygon class="st0" points="47.46,52.69 47.46,40.6 50.13,40.6 54.56,47.32 54.56,40.6 57.52,40.6 57.52,52.69 54.92,52.69 50.41,45.96 50.41,52.69 "/><path class="st0" d="M63.65,52.92c-1.79,0-3.3-0.66-4.49-1.92c-1.14-1.21-1.72-2.7-1.72-4.49c0-1.67,0.63-3.2,1.84-4.37 c1.19-1.17,2.68-1.78,4.4-1.78c2.82,0,5.23,1.85,6.02,4.83h-3.2c-0.65-1.19-1.62-1.82-2.8-1.82c-1.8,0-3.21,1.39-3.21,3.16 c0,1.92,1.5,3.4,3.16,3.4c1.14,0,2.14-0.61,2.79-1.73h3.21C68.85,51.14,66.56,52.92,63.65,52.92"/><polygon class="st0" points="69.82,52.69 69.82,40.6 76.38,40.6 76.38,43.27 72.77,43.27 72.77,45.22 76.38,45.22 76.38,47.91 72.77,47.91 72.77,50.02 76.38,50.02 76.38,52.69 "/><path class="st0" d="M43.77,23.2l1.21-3.88l1.19,3.88H43.77z M46.18,15.37h-2.41l-4.64,12.09h3.23l0.61-1.75h3.99l0.6,1.75h3.26 L46.18,15.37z"/><path class="st0" d="M65.26,24.8h-1.19v-6.83h1.17c2.18,0,3.35,1.22,3.35,3.4C68.59,23.75,67.52,24.8,65.26,24.8 M69.77,16.81 c-1.26-1.19-2.6-1.44-4.52-1.44h-4.13v12.09h4.54c1.7,0,2.84-0.24,4.13-1.5c1.15-1.14,1.75-2.65,1.75-4.49 C71.53,19.48,70.92,17.9,69.77,16.81"/><path class="st0" d="M39.66,33.51h-0.54v-2.87h0.78c1.31,0,1.94,0.41,1.94,1.41C41.84,33.14,41.12,33.51,39.66,33.51 M43.2,28.6 c-0.82-0.58-1.79-0.66-3.06-0.66h-4.01v12.09h2.96v-3.89h0.85c1.26,0,2.21-0.08,2.97-0.54c1.21-0.73,1.92-2.02,1.92-3.59 C44.83,30.49,44.27,29.35,43.2,28.6"/><path class="st0" d="M57.6,37.25c-1.67,0-3.18-1.46-3.18-3.36c0-1.77,1.41-3.18,3.21-3.18c1.7,0,3.11,1.41,3.11,3.18 C60.75,35.86,59.34,37.25,57.6,37.25 M61.94,29.5c-1.17-1.16-2.7-1.78-4.32-1.78c-1.72,0-3.21,0.59-4.4,1.77 c-1.19,1.17-1.84,2.7-1.84,4.37c0,1.79,0.58,3.28,1.72,4.49c1.19,1.26,2.72,1.9,4.5,1.9c1.68,0,3.28-0.66,4.45-1.89 c1.14-1.17,1.75-2.72,1.75-4.45C63.81,32.25,63.16,30.71,61.94,29.5"/><path class="st0" d="M40.75,48.44l1.21-3.88l1.19,3.88H40.75z M43.16,40.6h-2.41l-4.64,12.08h3.23l0.61-1.75h3.99l0.6,1.75h3.26 L43.16,40.6z"/><path class="st0" d="M80.35,46.18h-0.58V43.3h0.82c1.31,0,1.94,0.41,1.94,1.41C82.52,45.8,81.81,46.18,80.35,46.18 M82.78,48.54 c1.72-0.48,2.74-1.94,2.74-3.89c0-1.49-0.56-2.63-1.63-3.38c-0.82-0.58-1.79-0.66-3.06-0.66h-4.01V52.7h2.96v-3.89l2.31,3.89h3.65 L82.78,48.54z"/></symbol></svg>
